<mxfile host="app.diagrams.net" modified="2023-06-18T18:43:02.904Z" agent="Mozilla/5.0 (Windows NT 10.0; Win64; x64) AppleWebKit/537.36 (KHTML, like Gecko) Chrome/109.0.0.0 Safari/537.36" version="21.5.0" etag="8Td0us2NQK5JkmfynBn5" type="github">
  <diagram name="Page-1" id="Jx2odN2UkfCDQaL7GSCj">
    <mxGraphModel>
      <root>
        <mxCell id="0" />
        <mxCell id="1" parent="0" />
      </root>
    </mxGraphModel>
  </diagram>
</mxfile>
